<svg xmlns="http://www.w3.org/2000/svg" xmlns:xlink="http://www.w3.org/1999/xlink" width="856.136" height="466.789" viewBox="0 0 906.136 516.789">
  <defs>
    <linearGradient id="linear-gradient" x1="0.5" y1="1" x2="0.5" gradientUnits="objectBoundingBox">
      <stop offset="0" stop-color="gray" stop-opacity="0.251"/>
      <stop offset="0.54" stop-color="gray" stop-opacity="0.122"/>
      <stop offset="1" stop-color="gray" stop-opacity="0.102"/>
    </linearGradient>
    <linearGradient id="linear-gradient-2" x1="0" y1="0.5" x2="1" y2="0.5" xlink:href="#linear-gradient"/>
  </defs>
  <g id="undraw_winners_ao2o" transform="translate(0.02 0)">
    <path id="Path_93" data-name="Path 93" d="M572.937,503.657c17.5-1,39.223-12.871,56.11-18.122q29.98-9.3,60.2-17.893,105.194-29.932,212.645-51.009,10.028-1.972,20.087-3.849a142.184,142.184,0,0,0-46.938-56.371,144.225,144.225,0,0,0,.792-14.875c0-78.525-62.755-142.183-140.2-142.183A137.961,137.961,0,0,0,667.6,217.216c-54.811-36.055-126.35-57.876-204.621-57.876-111.221,0-208.859,44.062-264.184,110.413l260.018,43.928,159.474,26.93c-181.8,5.426-364.166,10.82-545.446-1.917A143.7,143.7,0,0,0,52.148,520.077h0c0,2.844.119,5.663.333,8.459,4.618,1.323,9.077,2.606,13.077,3.445q96.323,20.348,193.881,34.059c-47.928,29.552-106.295,33.734-161.581,46.249,26.772,22.1,63.127,35.643,103.19,35.643H797.566c64.593,0,116.948-44.965,116.948-100.441h0a142.721,142.721,0,0,0,19.01-52.189C814,506.841,692.99,496.822,572.937,503.657Z" transform="translate(-28.224 -131.142)" fill="#ef767a" opacity="0.1"/>
    <path id="Path_94" data-name="Path 94" d="M934.115,471.279a142.571,142.571,0,0,0-60.2-116.766,146.335,146.335,0,0,0,.792-14.867c0-78.525-62.787-142.159-140.2-142.159a138.041,138.041,0,0,0-68.046,17.853c-54.811-36.071-126.358-57.9-204.629-57.9-127.316,0-236.906,57.781-285.507,140.639-2.7-.158-5.418-.246-8.158-.246-77.416,0-140.2,63.658-140.2,142.183a142.991,142.991,0,0,0,23.065,78.153h0c0,70.652,66.684,127.926,148.908,127.926H796.486c64.585,0,116.94-44.973,116.94-100.449h0a142.984,142.984,0,0,0,20.689-74.367Z" transform="translate(-28 -130.747)" fill="#ef767a" opacity="0.1"/>
    <path id="Path_95" data-name="Path 95" d="M909.354,398.477a8.823,8.823,0,0,0-3.865-1.7c-1.481-.341-2.994-.554-4.5-.792l-19.5-2.812a22.968,22.968,0,0,0-5.972-.317,7.58,7.58,0,0,0-5.2,2.693,4.048,4.048,0,0,0-.9,2.535,6.685,6.685,0,0,0,.887,2.63,8.8,8.8,0,0,1,.483,1.164,26.626,26.626,0,0,0,.7,2.653,2.249,2.249,0,0,0,.333.523.87.87,0,0,1,0,.135c-.214,1.093.475,2.234.166,3.287-.269.9-1.148,1.449-1.7,2.2a3.311,3.311,0,0,0-.079,3.651c.594.919,1.671,1.545,1.98,2.6.4,1.386-.689,2.725-1.663,3.794a58.791,58.791,0,0,0-4.958,6.249,3.872,3.872,0,0,0-.792,1.861c-.087,1.378,1.236,2.59,1.006,3.96-.182,1.077-1.236,1.735-2.147,2.376-3.366,2.218-6.067,5.782-6.336,9.814a34.376,34.376,0,0,0-7.667-17.425,12.461,12.461,0,0,1-2.844-4.459c-.174-.689-.206-1.426-.444-2.091-.792-2.1-3.311-3-4.412-4.935-.792-1.362-.792-3.113-1.774-4.309s-2.527-1.465-3.374-2.622a16.765,16.765,0,0,1-1.077-2.44,5.33,5.33,0,0,0-1.465-1.758,4.261,4.261,0,0,0-.364-.261,1.259,1.259,0,0,0,.42-.935c0-.927-.919-1.537-1.719-2-1.03-.586-2.036-1.22-3.018-1.877a7.057,7.057,0,0,0,2.7-2.21,7.263,7.263,0,0,0,1.03-4.752,6,6,0,0,0-1.418-3.636c-.5-.531-1.125-.911-1.648-1.41-1.354-1.323-1.814-3.279-2.376-5.085-.745-2.376-1.909-4.871-4.079-6.131-1.046-.61-2.265-.9-3.287-1.537a2.869,2.869,0,0,1-1.521-3.018c.238-.792.974-1.339,1.473-2.012a4.008,4.008,0,0,0-1.006-5.544c-.586-.372-1.307-.7-1.426-1.378a2.519,2.519,0,0,1-1.838-1.948,7.51,7.51,0,0,1,0-2.82q.309-2.21.61-4.4a2.867,2.867,0,0,0,2.2,0,19.386,19.386,0,0,0,2.376,3.1,31.024,31.024,0,0,1,5.544,9.624c.451,1.267.911,2.685,2.083,3.358.4.23.863.349,1.259.594a4.7,4.7,0,0,1,1.236,1.267c.951,1.259,1.9,2.511,2.844,3.77l.047.19a1.11,1.11,0,0,0,.127.317,1.053,1.053,0,0,0,.681.349c2.915.673,6.186,1.291,8.713-.3,2.281-1.426,3.279-4.245,5.212-6.131,1.37-1.339,3.311-2.376,3.7-4.261a14.014,14.014,0,0,1-1.362-.5c.4-.4.792-.855,1.331-1.378a16.774,16.774,0,0,0,2.107-2.511,16.187,16.187,0,0,0,1.584-3.548q2.289-6.527,4.594-13.061c.729-2.059,1.457-4.135,2.376-6.138.951-2.17,2.075-4.253,3.113-6.384A84.75,84.75,0,0,0,872.7,315.01a6.335,6.335,0,0,0,.246-2.527,6.662,6.662,0,0,0-2.249-3.422,16.508,16.508,0,0,0-3.374-2.8,5.544,5.544,0,0,0-4.23-.681c-2.028.594-3.3,2.669-3.77,4.752a49.858,49.858,0,0,0-.491,6.336c-.285,3.049-1.331,6-1.584,9.053-.135,1.766,0,3.556-.214,5.323a19.422,19.422,0,0,1-2.376,6.558,42.456,42.456,0,0,1-10.241,12.626c-.483.4-.982.792-1.457,1.228a7.544,7.544,0,0,1,.1-1.03,6.209,6.209,0,0,0-1.006.356,3.016,3.016,0,0,0-.119-1.188c-.634-1.893-3.453-2.376-3.96-4.3a8.809,8.809,0,0,1-.135-1.442c-.166-1.687-1.315-3.113-1.711-4.752-.364-1.513-.087-3.168-.792-4.57a12.777,12.777,0,0,0-2.107-2.376,9.323,9.323,0,0,1-2-3.778c-.1-.388-.2-.792-.309-1.18a5.4,5.4,0,0,0-.285-2.606c-.721-1.79-2.582-2.939-3.255-4.752-.523-1.41-.293-3.168-1.283-4.261a4.634,4.634,0,0,0-1.877-1.133,41.764,41.764,0,0,0-11.3-2.669c-2.17-.2-4.562-.309-6.115-1.838-1.814-1.774-1.9-4.966-4.024-6.337-1.869-1.212-4.515-.317-5.964,1.386a7.545,7.545,0,0,0-.6.792,8.477,8.477,0,0,1-.166-3.247c0-.269.055-.547.079-.792a15.841,15.841,0,0,0,8.586-6.78v.047l.1.246c.23.578.594,1.133,1.133,1.2h0a1.584,1.584,0,0,0,.982-.356,8.135,8.135,0,0,0,1.315-1.141q.3-.333.57-.689a8.973,8.973,0,0,0,.935-1.584,9.413,9.413,0,0,0,.792-2.653c.143-.919.159-1.861.317-2.78a17.112,17.112,0,0,1,.578-2.1c.079-.23.158-.459.23-.689s.174-.539.253-.792a18.354,18.354,0,0,0,.792-5.022v-.855a8.357,8.357,0,0,0-2.661-5.9c-1.362-1.117-3.168-1.584-4.166-3.1a14.738,14.738,0,0,1-1.172-3.509,7.921,7.921,0,0,0-6.226-5.6,6.931,6.931,0,0,0-4.927,1.354h0l-.111.087h0a7.923,7.923,0,0,0-1.964,2.186,6.534,6.534,0,0,1-2.788-1.584c-.792-.737-1.4-1.663-2.2-2.376a5.663,5.663,0,0,0-5.639-1.188,6.74,6.74,0,0,0-4.032,4.618c-.436,1.632-.357,3.509-1.267,4.871-.7,1.061-1.861,1.584-2.669,2.55a4.8,4.8,0,0,0-1,2.115h0a5.727,5.727,0,0,0-.135,1.323h0a2.411,2.411,0,0,0,.047.586v.1a4.184,4.184,0,0,0,.135.642h0a5.544,5.544,0,0,0,1.18,2.17,5.213,5.213,0,0,0,1.909,1.378,7.737,7.737,0,0,0,.919.293l.943.214.333.079a15.794,15.794,0,0,0-.444,13.948,6.351,6.351,0,0,1-.079.665,54.777,54.777,0,0,0,.412,9.338,5.012,5.012,0,0,1-.578,3.556,6.747,6.747,0,0,1-1.148,1.022c.428-.554.863-1.1,1.307-1.647-1.117-1.125-2.883-1.267-4.467-1.156a20.7,20.7,0,0,0-8.713,2.661c-1.774,1.022-3.6,2.376-5.624,2.139-1.2-.135-2.376-.792-3.541-.475a7.176,7.176,0,0,0-1.814,1.077,2.455,2.455,0,0,1-1.489.459c-1.244-1.529-3.168-2.566-4.657-3.81a36.694,36.694,0,0,1-4.634-4.966c-2.566-3.1-5.125-6.2-7.643-9.33-2.123-2.63-4.3-5.473-4.673-8.839a8.642,8.642,0,0,1-.055-1.006,25.591,25.591,0,0,1,.6-4.752,2.373,2.373,0,0,0,0-1.148c-.238-.792-1.148-1.085-1.933-1.259h0c.1-.61.174-1.236.214-1.83.444-6.812-.04-13.734,1.4-20.4a13.87,13.87,0,0,1,3.287-7.026c2.891-2.923,7.731-3.628,9.948-7.089,1.853-2.883,1.117-6.962-1.212-9.5a12,12,0,0,0-9.33-3.453,4.816,4.816,0,0,0-2.717.729,5.774,5.774,0,0,0-1.647,2.5l-3.4,8.261A49.972,49.972,0,0,0,722.1,244.4c-.951,3.469-1.164,7.129-1.917,10.629,0,2.693-1.735,6.051-2.685,8.531-1.061,2.788-2.21,5.544-3.168,8.388-.238.713-1.069,2.828-1.584,4.752a2.9,2.9,0,0,0-.539.4,14.325,14.325,0,0,0-1.125,1.671c-.721.95-1.893,1.457-2.685,2.376s-.958,2.606.143,3.065a3.229,3.229,0,0,0,.689.15,2.686,2.686,0,0,1,.428.071c1.188.333,1.656,1.83,1.481,3.065s-.792,2.376-.9,3.612c-.214,2.186,1.069,4.222,2.3,6.059a52.228,52.228,0,0,0,4.23,5.695c1.117,1.251,2.376,2.376,3.5,3.58,4.285,4.4,7.691,9.552,11.54,14.336a31.786,31.786,0,0,0,4.7,4.927,35.379,35.379,0,0,0,3.556,2.447l6.622,4.2a7.256,7.256,0,0,0,2.5,1.18,3.328,3.328,0,0,0,.887,0c.04.2.071.388.119.586.515,2.075,1.647,3.96,1.774,6.075s-.063,4.277.087,6.416c.143,1.972.578,3.96.689,5.9.222,3.739-.7,7.43-1.584,11.089-1.339,5.354-2.146,10.82-4.752,15.675a9.217,9.217,0,0,0-1.584,4.23,2.188,2.188,0,0,0,.048.554h0l-1.188.673c-.349.2-.7.4-1.014.6-1.5.982-3.113,2.067-3.731,3.762-.5,1.37-.269,2.939-.871,4.269a1.886,1.886,0,0,1-.095.174c-.634,1.236-1.893,2.154-2.178,3.509h0c-.214,1.038.2,2.139,0,3.168v.04a11.464,11.464,0,0,0-.428,1.584,1.894,1.894,0,0,0,.047.523,3.018,3.018,0,0,0,.95,1.545,6.338,6.338,0,0,0,.927.737q.507.333,1.045.618l.206.111c.3.158.6.309.911.451l.206.087c.356.158.721.3,1.085.428l.253.079c.285.1.578.182.871.253l.2.063.182.04.792.166.293.055q.523.087,1.069.143h.317c.269,0,.531.04.792.047h1.449a8.866,8.866,0,0,0,1.117-.1h.119c.333-.047.665-.1,1-.174l.253-.055c.309-.071.618-.143.927-.238l.166-.048c.372-.111.745-.23,1.109-.372a29.1,29.1,0,0,0,3.659-1.814c.792-.436,1.584-.879,2.376-1.283a18.447,18.447,0,0,1,1.806-.792,10.194,10.194,0,0,1,4.752-.792,18.608,18.608,0,0,1,2.376.483q0,.131,0,.261.966,5.7,1.909,11.406a23.219,23.219,0,0,1,3.279-1.972,7.29,7.29,0,0,0-.42,1.782,7.064,7.064,0,0,0,0,1.418,3.077,3.077,0,0,1-.222,2.178c-.277.364-.792.57-.943.982a3.35,3.35,0,0,0-.079,1.291,2.059,2.059,0,0,1-1.885,1.917,3.01,3.01,0,0,1-1.2,3.533,4.184,4.184,0,0,0-.919.6,2.741,2.741,0,0,0-.531,1.2,21.165,21.165,0,0,1-6.2,10.194,19.94,19.94,0,0,0-3.065,2.994,13.635,13.635,0,0,0-1.386,2.733q-3.168,7.746-6.431,15.5a34.393,34.393,0,0,0-2.756,8.942c-.951,8.538-8.554,15.778-7.129,24.253A11.881,11.881,0,0,0,741.12,497c1.584,1.909,3.96,3,6.336,3.889,6.107,2.376,12.546,3.675,18.962,4.982l10.075,2.067a44.052,44.052,0,0,0,6,.951c2.432.166,4.927-.063,7.295.554a22.652,22.652,0,0,0,4.38,1.164c1.3.071,2.9-.206,3.667.855s.174,2.463.9,3.406c1.172,1.5,4.032,0,5.307,1.41a6.569,6.569,0,0,1,.792,1.751,3.168,3.168,0,0,0,.792,1,6.691,6.691,0,0,1,.1,1.354,23.352,23.352,0,0,1-1.141,5.4q-1.426,4.824-2.844,9.655a21.381,21.381,0,0,0-.792,3.485,8.372,8.372,0,0,0,0,1.727,4.742,4.742,0,0,0,2.844,4.127,5.212,5.212,0,0,0,3.849-.475,17.019,17.019,0,0,0,3.168-2.139,21.631,21.631,0,0,0,4.57-4.7c3.96-5.925,2.677-13.94,5.457-20.491,1.846-4.372,5.442-7.921,6.638-12.53a5.014,5.014,0,0,0,.095-2.709c-.5-1.584-2.186-2.487-3.762-3.057h-.071a32.464,32.464,0,0,0-3.96-1.133c-.333-.071-.673-.127-1.014-.182a6.218,6.218,0,0,1-1.75-2.281,5.306,5.306,0,0,0-.372-1.37,1.426,1.426,0,0,0-1.141-.634c-.792-.079-1.853.206-2.717.143-1.766-.127-2.939-1.861-4.523-2.661s-3.3-.6-4.99-.483a4.617,4.617,0,0,1-1.806-.111,6.79,6.79,0,0,1-1.9-1.307,7.968,7.968,0,0,0-6.978-1.4,7.6,7.6,0,0,1-2.376.539c-1.545-.087-2.638-1.465-3.778-2.511-3.121-2.859-7.564-3.612-11.35-5.489a2.59,2.59,0,0,1-1.362-1.172c-.436-1.077.547-2.154,1.434-2.891l6.511-5.41c7.129-5.925,16.039-10.384,19.35-19.073a11.031,11.031,0,0,1,1.584-3.255,4.419,4.419,0,0,1,.879-.792,6.653,6.653,0,0,1,4.871-.95,16.452,16.452,0,0,1,5.735,2.5q4.253,2.574,8.277,5.544a73.226,73.226,0,0,1,7.564,6.21c4.158,3.96,7.62,8.657,11.493,12.926s8.3,8.253,13.679,10.3,11.881,1.956,16.5-1.473c5.331-3.96,7.041-11.041,8.388-17.536,2.97-2.867,3.865-7.232,5.315-11.089.911-2.447,2.075-4.752,3.057-7.192,1.172-2.867,2.091-5.83,3.01-8.784a42.241,42.241,0,0,0,2.107-9.164c.38-4.935-.943-10.186.444-14.819,1.83-.4,3.493-1.434,5.291-2.036,2.677-.879,5.544-.737,8.38-.721h.182a4.325,4.325,0,0,0,2.788-.657,4.439,4.439,0,0,0,1.148-3.374C911.818,403.848,911.628,400.442,909.354,398.477ZM794.593,263.367a5.884,5.884,0,0,1-2,.143Z" transform="translate(-169.351 -145.057)" fill="url(#linear-gradient)"/>
    <path id="Path_96" data-name="Path 96" d="M813.627,330.323a8.713,8.713,0,0,1-3.3,1.75l-5.616,2.012c-3.049,1.093-6.234,2.194-9.449,1.8-1.8-.222-9.5-1.354-10.669-2.756-1.774-2.17,4.443-5.362,6.566-7.192a8.978,8.978,0,0,0,1.331-1.172c.792-.966.689-2.321.578-3.54a54.66,54.66,0,0,1-.412-9.323,18.819,18.819,0,0,1,.317-2.21c.792-3.643,4.182-2.313,6.859-1.346a53.636,53.636,0,0,1,9.307,4.032,6.678,6.678,0,0,1,2.3,1.948c1.172,1.774.705,4.1.515,6.336-.166,1.735-.158,3.4.927,4.657a11.988,11.988,0,0,1,1.5,1.584A2.97,2.97,0,0,1,813.627,330.323Z" transform="translate(-185.264 -161.906)" fill="#be6f72"/>
    <path id="Path_97" data-name="Path 97" d="M721.337,256.791c.792-3.509.966-7.129,1.917-10.606a49.658,49.658,0,0,1,2.487-6.614l3.493-8.15a5.75,5.75,0,0,1,1.648-2.495,4.879,4.879,0,0,1,2.717-.729,12.1,12.1,0,0,1,9.331,3.446c2.329,2.511,3.065,6.574,1.212,9.449-2.218,3.461-7.057,4.158-9.948,7.073a13.848,13.848,0,0,0-3.287,7.01c-1.442,6.653-.958,13.552-1.4,20.348-.142,2.115-.554,4.531-2.376,5.624a6.93,6.93,0,0,1-3.548.689l-5.2.087c-.871,0-4.032.547-4.61-.111-1.014-1.148,1.3-6.867,1.719-8.142.935-2.828,2.083-5.584,3.168-8.364C719.6,262.826,721.337,259.476,721.337,256.791Z" transform="translate(-170.549 -145.458)" fill="#be6f72"/>
    <path id="Path_98" data-name="Path 98" d="M851.865,576.585c-1.2,4.578-4.792,8.142-6.638,12.507-2.78,6.534-1.529,14.526-5.457,20.435a21.585,21.585,0,0,1-4.57,4.713,16.971,16.971,0,0,1-3.168,2.131,5.211,5.211,0,0,1-3.849.475,4.741,4.741,0,0,1-2.844-4.119,8.321,8.321,0,0,1,0-1.719,21.3,21.3,0,0,1,.792-3.477q1.426-4.808,2.844-9.631a23.318,23.318,0,0,0,1.141-5.386c.1-2-1.164-4.594-.626-6.455.246-.84,1.164-1.584,1.584-2.289a13.252,13.252,0,0,0,1.362-3.24c.65-2.21,1.093-4.57,2.455-6.432a15.1,15.1,0,0,1,3.089-2.891,8.19,8.19,0,0,1,2.946-1.655,7.215,7.215,0,0,1,3.168.15,31.1,31.1,0,0,1,3.96,1.125h.071c1.584.57,3.263,1.449,3.762,3.049A4.983,4.983,0,0,1,851.865,576.585Z" transform="translate(-193.792 -216.418)" fill="#3f3d56"/>
    <path id="Path_99" data-name="Path 99" d="M954.134,451.844c-.047,1.228-.2,2.6-1.148,3.366a4.324,4.324,0,0,1-2.788.657h-.214c-2.828,0-5.7-.158-8.38.721-2.036.673-3.9,1.909-6.028,2.154-2.923.333-5.671-1.267-8.261-2.661a82.186,82.186,0,0,0-7.5-3.564c-1.679-.689-5.109-1.133-5.917-2.97a27.034,27.034,0,0,1-.7-2.645,8.794,8.794,0,0,0-.483-1.164,6.693,6.693,0,0,1-.887-2.622,4.048,4.048,0,0,1,.9-2.535,7.6,7.6,0,0,1,5.188-2.669,22.97,22.97,0,0,1,5.972.317l19.5,2.8c1.5.214,3.018.428,4.5.792a8.825,8.825,0,0,1,3.865,1.7C954.063,445.452,954.253,448.85,954.134,451.844Z" transform="translate(-211.786 -189.054)" fill="#3f3d56"/>
    <path id="Path_100" data-name="Path 100" d="M902.61,458.7c-2.376,5.014-.665,10.946-1.093,16.491a42.039,42.039,0,0,1-2.107,9.14c-.919,2.946-1.838,5.9-3.01,8.76-.982,2.376-2.146,4.752-3.057,7.176-1.45,3.865-2.376,8.214-5.315,11.089-1.346,6.479-3.057,13.56-8.388,17.489-4.634,3.422-11.089,3.541-16.5,1.473s-9.806-6.028-13.679-10.3-7.334-8.919-11.493-12.895a72.078,72.078,0,0,0-7.58-6.2q-4.024-2.923-8.277-5.5a16.579,16.579,0,0,0-5.735-2.495,6.653,6.653,0,0,0-4.871.95,4.423,4.423,0,0,0-.879.792,10.9,10.9,0,0,0-1.584,3.247c-3.327,8.665-12.253,13.117-19.382,19.025l-6.511,5.394c-.887.737-1.869,1.814-1.434,2.883a2.589,2.589,0,0,0,1.362,1.172c3.786,1.869,8.229,2.622,11.35,5.473,1.141,1.045,2.234,2.424,3.778,2.5a7.59,7.59,0,0,0,2.376-.531,7.991,7.991,0,0,1,6.978,1.394,6.786,6.786,0,0,0,1.9,1.307,4.616,4.616,0,0,0,1.806.111c1.687-.119,3.477-.269,4.99.483s2.756,2.527,4.523,2.653c.863.063,1.893-.222,2.717-.143a1.426,1.426,0,0,1,1.141.634,5.251,5.251,0,0,1,.372,1.362c.325,1.117,1.418,1.8,2.131,2.717a7.5,7.5,0,0,1,1.141,5.109,21.8,21.8,0,0,1-6.938,14.59,8.586,8.586,0,0,1-4.269,2.376,3.96,3.96,0,0,1-4.23-1.877,6.509,6.509,0,0,0-.792-1.743c-1.275-1.4-4.135.087-5.307-1.41-.729-.935-.206-2.432-.9-3.4s-2.376-.792-3.667-.847A23.226,23.226,0,0,1,797.8,556c-2.376-.618-4.863-.388-7.295-.554a44.031,44.031,0,0,1-6-.951l-10.075-2.059c-6.416-1.307-12.855-2.63-18.962-4.966a15.26,15.26,0,0,1-6.336-3.881,11.882,11.882,0,0,1-2.471-5.782c-1.434-8.451,6.17-15.675,7.129-24.19a33.932,33.932,0,0,1,2.756-8.919q3.224-7.731,6.432-15.469a13.78,13.78,0,0,1,1.347-2.741,19.886,19.886,0,0,1,3.065-2.986,21.093,21.093,0,0,0,6.2-10.17,2.742,2.742,0,0,1,.531-1.2,4.454,4.454,0,0,1,.919-.594,3.01,3.01,0,0,0,1.2-3.525,2.059,2.059,0,0,0,1.885-1.917,3.313,3.313,0,0,1,.079-1.283c.19-.412.665-.618.943-.982a3.061,3.061,0,0,0,.222-2.17,7.055,7.055,0,0,1,0-1.418,7.279,7.279,0,0,1,2.123-4.428c1.893-1.861,4.586-1.378,7.2-1.822a41.243,41.243,0,0,0,7.6-2.432,74.7,74.7,0,0,1,21.473-4.966,46.882,46.882,0,0,1,21.687,3.453,12.332,12.332,0,0,1,2.8,1.584,5.3,5.3,0,0,1,1.465,1.751,16.323,16.323,0,0,0,1.077,2.432c.848,1.156,2.448,1.529,3.374,2.622s1.006,2.939,1.774,4.293c1.1,1.933,3.651,2.828,4.412,4.927.238.665.269,1.394.444,2.083.428,1.727,1.711,3.089,2.844,4.451a34.224,34.224,0,0,1,7.667,17.425c.253-4.016,2.954-7.572,6.336-9.79.911-.594,1.964-1.251,2.146-2.329.23-1.362-1.093-2.574-1.006-3.96a3.881,3.881,0,0,1,.792-1.853,58.61,58.61,0,0,1,4.958-6.233c.974-1.069,2.067-2.376,1.663-3.786-.309-1.053-1.386-1.671-1.98-2.59a3.3,3.3,0,0,1,.079-3.644c.554-.752,1.434-1.3,1.7-2.194.309-1.053-.38-2.194-.166-3.279a4.055,4.055,0,0,1,1.632-2.115,13.569,13.569,0,0,1,3.541-2.329c2.091-.792,4.42-.5,6.637-.19,3.707.515,7.865,1.307,9.956,4.412C902.927,453.683,903.608,456.63,902.61,458.7Z" transform="translate(-177.402 -190.845)" fill="#65617d"/>
    <path id="Path_101" data-name="Path 101" d="M954.128,451.844c-.047,1.228-.2,2.6-1.148,3.366a4.324,4.324,0,0,1-2.788.657h-.214c.325-1.647,2.329-2.59,2.677-4.261a3.77,3.77,0,0,0-.871-2.875c-1.7-2.289-4.42-3.556-7.129-4.483a47.223,47.223,0,0,0-23.809-1.782,23.974,23.974,0,0,0-6.257,1.925,20.384,20.384,0,0,0-1.9,1.346,6.693,6.693,0,0,1-.887-2.622,4.047,4.047,0,0,1,.9-2.535,7.6,7.6,0,0,1,5.188-2.669,22.97,22.97,0,0,1,5.972.317l19.5,2.8a45.679,45.679,0,0,1,4.5.792,8.823,8.823,0,0,1,3.865,1.7C954.056,445.452,954.247,448.85,954.128,451.844Z" transform="translate(-211.78 -189.054)" opacity="0.1"/>
    <path id="Path_102" data-name="Path 102" d="M851.865,576.955c-1.2,4.578-4.792,8.142-6.638,12.507-2.78,6.534-1.529,14.526-5.457,20.435a21.588,21.588,0,0,1-4.57,4.713,16.974,16.974,0,0,1-3.168,2.131,5.211,5.211,0,0,1-3.849.475,4.741,4.741,0,0,1-2.844-4.119,8.321,8.321,0,0,1,0-1.719l.048.127c.689,1.663,1.814,3.406,3.588,3.7a4.855,4.855,0,0,0,3.659-1.291c2.614-2.1,4.135-5.228,5.584-8.245a34.287,34.287,0,0,0,2.677-6.835c.317-1.347.467-2.725.792-4.071,1.5-6.542,6.63-11.881,7.762-18.51a4.526,4.526,0,0,0,.063-1.386,7.005,7.005,0,0,0-.681-1.727,8.556,8.556,0,0,1-.6-1.917c1.584.57,3.263,1.45,3.762,3.049a4.983,4.983,0,0,1-.127,2.685Z" transform="translate(-193.792 -216.788)" opacity="0.1"/>
    <path id="Path_103" data-name="Path 103" d="M830.635,551.966a11.478,11.478,0,0,1-3.572,4.879,17.423,17.423,0,0,1-7.691,3.327,7.65,7.65,0,0,1-3.96-.047c-1.758-.61-3.026-2.257-4.824-2.733-1.283-.349-2.661-.04-3.96-.23-2.337-.325-4.15-2.107-6.036-3.533-5.774-4.34-13.354-5.742-19.128-10.083a1.775,1.775,0,0,1-.618-.642,1.909,1.909,0,0,1-.119-.9,18.216,18.216,0,0,1,1.735-7.612,26.555,26.555,0,0,1,3.263-4.649c5.172-6.337,10.368-12.72,16.562-18.067A25.1,25.1,0,0,1,811,506.335c1.822-.562,5.418-1.093,7.635-.143a4.418,4.418,0,0,0-.879.792,10.9,10.9,0,0,0-1.584,3.247c-3.334,8.673-12.261,13.124-19.39,19.033l-6.511,5.394c-.887.737-1.869,1.814-1.434,2.883a2.59,2.59,0,0,0,1.362,1.172c3.786,1.869,8.229,2.622,11.35,5.473,1.141,1.046,2.234,2.424,3.778,2.5a7.587,7.587,0,0,0,2.376-.531,7.992,7.992,0,0,1,6.978,1.394,6.789,6.789,0,0,0,1.9,1.307,4.618,4.618,0,0,0,1.806.111c1.687-.119,3.477-.269,4.99.483s2.756,2.527,4.523,2.653C828.782,552.172,829.811,551.871,830.635,551.966Z" transform="translate(-184.522 -203.158)" opacity="0.1"/>
    <path id="Path_104" data-name="Path 104" d="M749.848,420.8c-1.5.966-3.1,2.059-3.723,3.739-.507,1.37-.269,2.939-.879,4.269s-1.98,2.257-2.281,3.683c-.214,1.038.206,2.131,0,3.168a13.644,13.644,0,0,0-.436,1.647c-.079,1.18.935,2.139,1.925,2.8a16.079,16.079,0,0,0,14.392,1.584,65.018,65.018,0,0,0,6.051-3.1A11.968,11.968,0,0,1,771.415,437c1.307.143,2.558.618,3.865.792a4.055,4.055,0,0,0,3.62-1.077,4.515,4.515,0,0,0,.792-1.877c1.1-4.348.6-8.958-.444-13.33s-2.63-8.578-3.746-12.926a59.311,59.311,0,0,0-2.725-9.576c-1.323-3.049-3.548-5.885-6.661-7.049a1.243,1.243,0,0,0-.792-.1,1.346,1.346,0,0,0-.515.38,24.355,24.355,0,0,0-5.434,9.14c-1.244,3.794-1.584,7.818-2.725,11.627-.491,1.584-1.125,3.707-2.376,4.919A27.147,27.147,0,0,1,749.848,420.8Z" transform="translate(-176.581 -179.486)" fill="#3f3d56"/>
    <path id="Path_105" data-name="Path 105" d="M779.72,434.8a4.619,4.619,0,0,1-.832,1.877,4.016,4.016,0,0,1-3.62,1.069c-1.3-.158-2.55-.642-3.857-.792a11.945,11.945,0,0,0-6.519,1.584c-2.028,1.014-3.96,2.273-6.059,3.089a15.992,15.992,0,0,1-9.608.547,15.5,15.5,0,0,1-4.752-2.091c-1-.65-2-1.584-1.925-2.8a13.56,13.56,0,0,1,.436-1.64c.206-1.038-.206-2.131,0-3.168.3-1.426,1.679-2.376,2.281-3.691s.372-2.891.871-4.261c.618-1.687,2.226-2.772,3.731-3.746s3.3-1.719,4.5-2.9a4.47,4.47,0,0,0,.42-.586,14.257,14.257,0,0,0,1.885-4.364c1.164-3.818,1.481-7.834,2.717-11.635a24.4,24.4,0,0,1,5.441-9.133,1.2,1.2,0,0,1,.507-.38,1.267,1.267,0,0,1,.792.1c3.1,1.172,5.331,4.008,6.661,7.057s1.893,6.336,2.725,9.568c1.109,4.348,2.7,8.57,3.747,12.934S780.821,430.444,779.72,434.8Z" transform="translate(-176.585 -179.471)" opacity="0.1"/>
    <path id="Path_106" data-name="Path 106" d="M814.155,320.642a15.841,15.841,0,0,1-19.295-8.713,18.792,18.792,0,0,1,.317-2.21c.792-3.644,4.182-2.313,6.859-1.347a53.638,53.638,0,0,1,9.307,4.032,6.676,6.676,0,0,1,2.3,1.948C814.812,316.1,814.345,318.432,814.155,320.642Z" transform="translate(-187.463 -161.913)" opacity="0.1"/>
    <circle id="Ellipse_23" data-name="Ellipse 23" cx="15.841" cy="15.841" r="15.841" transform="translate(606.066 126.999)" fill="#be6f72"/>
    <path id="Path_107" data-name="Path 107" d="M850.929,452.073c0,1.315-1.782,1.735-3.1,1.663-4.752-.277-9.4-1.584-14.107-1.188-5.948.539-11.414,3.826-17.378,4.127-2.3.119-4.634-.222-6.9.2-2.931.547-5.544,2.329-8.531,2.582-2.59.222-5.148-.752-7.739-.649A12.434,12.434,0,0,0,788,460.279a7.279,7.279,0,0,1,2.123-4.428c1.893-1.861,4.586-1.378,7.2-1.822a41.246,41.246,0,0,0,7.6-2.432,74.7,74.7,0,0,1,21.473-4.966,46.883,46.883,0,0,1,21.679,3.43,12.332,12.332,0,0,1,2.8,1.584A1.243,1.243,0,0,1,850.929,452.073Z" transform="translate(-186.037 -190.85)" opacity="0.1"/>
    <path id="Path_108" data-name="Path 108" d="M797.168,338.609l-6.416-2.376-2.709-1a13.1,13.1,0,0,0-3.453-.919c-3.1-.238-6.028,1.83-7.683,4.467s-2.281,5.782-2.812,8.847q-1.093,6.289-1.853,12.625a82.468,82.468,0,0,0-.832,11.517c.182,9.806,2.257,19.477,4.538,29.021a102.064,102.064,0,0,1,2.527,12.871c.19,1.79.277,3.588.467,5.386.206,2.02.539,4.016.871,6.02l1.909,11.382c2.376-1.687,5.077-3.168,8-3.255,2.59-.1,5.156.871,7.739.65,2.97-.246,5.6-2.028,8.53-2.574,2.265-.42,4.6-.087,6.907-.2,5.956-.3,11.43-3.6,17.37-4.127,4.713-.428,9.394.9,14.115,1.18,1.315.079,3.1-.341,3.1-1.663,0-.919-.919-1.529-1.719-1.988a84.75,84.75,0,0,1-10.733-7.659c-3.121-2.471-6.289-5.006-8.435-8.348-5.172-8.039-3.4-18.914-7.81-27.4-3.588-6.891,0-15.92,0-23.691a36.039,36.039,0,0,0-3.034-17.734l-3.081-7.8a1.275,1.275,0,0,0-.364-.594,1.212,1.212,0,0,0-.7-.214,7.43,7.43,0,0,0-5.117,1.64c-1.45,1.18-2.376,2.875-3.8,4.1C801.12,338.133,799.108,339.321,797.168,338.609Z" transform="translate(-182.587 -166.842)" fill="#e3e8f4"/>
    <path id="Path_109" data-name="Path 109" d="M814.921,332.8c.507-2.17,1.054-4.428,2.5-6.123s4.095-2.59,5.964-1.378c2.123,1.378,2.21,4.562,4.024,6.336,1.584,1.521,3.96,1.64,6.115,1.838a41.464,41.464,0,0,1,11.3,2.661,4.618,4.618,0,0,1,1.877,1.125c.99,1.125.792,2.851,1.283,4.253.673,1.806,2.535,2.954,3.255,4.752.792,2,0,4.23-.665,6.281-1.2,3.683-1.948,7.509-3.113,11.208a24.955,24.955,0,0,1-5.544,10.13c-1.2,1.236-2.994,2.376-4.578,1.64l-.61,4.4a7.471,7.471,0,0,0,0,2.812,2.519,2.519,0,0,0,1.837,1.948c.119.681.84,1.006,1.426,1.378A3.96,3.96,0,0,1,841,391.607c-.5.673-1.236,1.2-1.473,2a2.847,2.847,0,0,0,1.521,3.01c1.03.634,2.242.927,3.287,1.537,2.17,1.251,3.334,3.715,4.079,6.107.555,1.806,1.014,3.762,2.376,5.077.523.5,1.149.879,1.648,1.4a6.012,6.012,0,0,1,1.418,3.636,7.216,7.216,0,0,1-1.03,4.752c-1.584,2.265-4.539,2.939-7.129,3.96-4.206,1.727-7.667,4.816-11.374,7.445a12.135,12.135,0,0,1-5.188,2.44c-2.566.341-5.093-.792-7.675-.9a19.059,19.059,0,0,0-4.578.6l-4.752,1.03c.253-3.683-1.774-7.374-2.907-10.883a54.085,54.085,0,0,1-2.028-20.594,161.323,161.323,0,0,1,3.311-20.546c.974-4.752.879-9.719,2.376-14.336,1.4-4.443,3.406-8.713,4.142-13.338C818.231,346.531,813.226,340.186,814.921,332.8Z" transform="translate(-189.988 -165.536)" fill="#3f3d56"/>
    <path id="Path_110" data-name="Path 110" d="M859.327,353.115a8.713,8.713,0,0,1,.911,2.574,9.291,9.291,0,0,0,2,3.77,12.983,12.983,0,0,1,2.107,2.376c.729,1.378.451,3.057.792,4.562.4,1.64,1.544,3.065,1.711,4.752a8.71,8.71,0,0,0,.135,1.442c.515,1.917,3.335,2.376,3.96,4.293.42,1.244-.3,2.6-.166,3.9a3.437,3.437,0,0,1,.071,1.236,2.51,2.51,0,0,1-.9,1.156,18.218,18.218,0,0,0-5.212,9.275,52.822,52.822,0,0,0-1.2,10.717l-3.1-4.095a4.705,4.705,0,0,0-1.236-1.267c-.4-.238-.855-.356-1.259-.594-1.172-.665-1.632-2.075-2.083-3.342a30.89,30.89,0,0,0-5.544-9.6c-1.259-1.481-2.725-2.97-3-4.895a9.019,9.019,0,0,1,.143-2.645c.792-5.188,1.64-10.5,4.166-15.1,1.18-2.154,2.709-4.1,3.841-6.289C856.23,353.891,857.3,350.121,859.327,353.115Z" transform="translate(-198.363 -171.202)" fill="#3f3d56"/>
    <path id="Path_111" data-name="Path 111" d="M752.176,345.086a3.62,3.62,0,0,1-.491,1.9,2.5,2.5,0,0,1-2.5.792,7.24,7.24,0,0,1-2.5-1.172q-3.311-2.091-6.622-4.19a36.65,36.65,0,0,1-3.557-2.44,31.749,31.749,0,0,1-4.7-4.919c-3.849-4.752-7.255-9.909-11.54-14.257-1.164-1.188-2.376-2.329-3.5-3.572a52.134,52.134,0,0,1-4.23-5.687c-1.236-1.83-2.519-3.857-2.3-6.043.127-1.236.721-2.376.9-3.6s-.293-2.725-1.481-3.057a2.679,2.679,0,0,0-.428-.071,3.233,3.233,0,0,1-.689-.151c-1.1-.459-.935-2.162-.143-3.057s1.964-1.394,2.685-2.376a14.324,14.324,0,0,1,1.125-1.671,4.285,4.285,0,0,1,1.846-.927,28.563,28.563,0,0,1,14.059-.531c.792.174,1.7.491,1.933,1.259a2.323,2.323,0,0,1,0,1.141,25.5,25.5,0,0,0-.6,4.752,8.415,8.415,0,0,0,.056,1c.372,3.358,2.55,6.2,4.673,8.824,2.519,3.121,5.077,6.218,7.643,9.307a36.57,36.57,0,0,0,4.633,4.95c1.584,1.315,3.636,2.376,4.871,4.063,1.006,1.362.681,3.224.792,4.863a107.935,107.935,0,0,1,.079,14.875Z" transform="translate(-169.349 -158.191)" fill="#3f3d56"/>
    <path id="Path_112" data-name="Path 112" d="M887.378,386.108a16.632,16.632,0,0,0,2.107-2.5,16.458,16.458,0,0,0,1.584-3.54l4.594-13.029c.729-2.059,1.457-4.127,2.376-6.131.95-2.162,2.075-4.245,3.113-6.336a84.514,84.514,0,0,0,6.154-17.227,6.385,6.385,0,0,0,.246-2.527,6.641,6.641,0,0,0-2.25-3.414,16.464,16.464,0,0,0-3.374-2.788,5.545,5.545,0,0,0-4.23-.681c-2.028.594-3.3,2.669-3.77,4.752a49.635,49.635,0,0,0-.491,6.337c-.285,3.042-1.331,5.98-1.584,9.029-.135,1.766,0,3.548-.214,5.307a19.384,19.384,0,0,1-2.376,6.55,42.527,42.527,0,0,1-10.241,12.594,16.465,16.465,0,0,0-3.073,2.954,9.64,9.64,0,0,0-1.481,3.691,8.5,8.5,0,0,0,.642,6c1.291,2.2,3.77,3.168,6.138,3.659C884.447,389.475,885.184,388.382,887.378,386.108Z" transform="translate(-203.959 -166.168)" fill="#be6f72"/>
    <path id="Path_113" data-name="Path 113" d="M808.164,273.607a7.39,7.39,0,0,1,7.176-3.889,7.921,7.921,0,0,1,6.226,5.592,14.452,14.452,0,0,0,1.172,3.5c.982,1.529,2.8,1.972,4.166,3.081a8.34,8.34,0,0,1,2.661,5.893,17.831,17.831,0,0,1-1.053,6.661,21.18,21.18,0,0,0-.792,2.788c-.158.919-.174,1.853-.317,2.772a9.029,9.029,0,0,1-3.635,6,1.584,1.584,0,0,1-.982.356c-.618-.071-1-.792-1.228-1.442-1.259-3.636-.958-8.079-3.279-10.978a12,12,0,0,0-3.754-2.8,4.84,4.84,0,0,0-1.917-.721,5.046,5.046,0,0,0-2.772,1.014,17.259,17.259,0,0,1-5.481,2.424,6.732,6.732,0,0,1-5.663-1.22c-1.093-.9-1.893-2.257-3.1-2.962s-2.479-.665-3.675-1.148a5.441,5.441,0,0,1-2.2-8.3c.792-.951,1.964-1.489,2.669-2.543.911-1.362.832-3.232,1.267-4.863a6.693,6.693,0,0,1,4.032-4.6,5.663,5.663,0,0,1,5.64,1.18c.792.713,1.426,1.632,2.2,2.376a6.337,6.337,0,0,0,5.861,1.584" transform="translate(-186.161 -153.72)" fill="#3f3d56"/>
    <path id="Path_114" data-name="Path 114" d="M829.47,421.543a3.073,3.073,0,0,0-.84,3.358c.174.372,8.348-1.2,9.212-1.323,2.154-.309,5.932-.158,7.382-2.131,2.582-3.493-5.418-2.717-6.883-2.59C835.553,419.1,831.592,419.475,829.47,421.543Z" transform="translate(-194.446 -185.072)" opacity="0.1"/>
    <path id="Path_115" data-name="Path 115" d="M730.028,292.485a25.508,25.508,0,0,0-.6,4.752c-2.376.483-4.847-.309-7.129-1.1l-6.55-2.234a1.861,1.861,0,0,0-2.5.467,55.485,55.485,0,0,1-3.96,4.4,3.235,3.235,0,0,1-.689-.15c-1.1-.459-.935-2.162-.143-3.057s1.964-1.394,2.685-2.376a14.324,14.324,0,0,1,1.125-1.671,4.286,4.286,0,0,1,1.846-.927,28.563,28.563,0,0,1,14.059-.531c.792.174,1.695.491,1.933,1.259A2.32,2.32,0,0,1,730.028,292.485Z" transform="translate(-169.363 -158.191)" fill="#3f3d56"/>
    <path id="Path_116" data-name="Path 116" d="M730.028,292.485a25.508,25.508,0,0,0-.6,4.752c-2.376.483-4.847-.309-7.129-1.1l-6.55-2.234a1.861,1.861,0,0,0-2.5.467,55.485,55.485,0,0,1-3.96,4.4,3.235,3.235,0,0,1-.689-.15c-1.1-.459-.935-2.162-.143-3.057s1.964-1.394,2.685-2.376a14.324,14.324,0,0,1,1.125-1.671,4.286,4.286,0,0,1,1.846-.927,28.563,28.563,0,0,1,14.059-.531c.792.174,1.695.491,1.933,1.259A2.32,2.32,0,0,1,730.028,292.485Z" transform="translate(-169.363 -158.191)" opacity="0.1"/>
    <path id="Path_117" data-name="Path 117" d="M807.387,482.326c1.141.38,2.376.935,2.764,2.075l-9.172-2.329-4.752-1.212c-.84-.214-3.849-.459-4.4-1.117-.792-.966,2.02-.3,2.527-.23,1.537.23,3.073.467,4.6.745C801.835,480.773,804.607,481.621,807.387,482.326Z" transform="translate(-186.803 -197.659)" opacity="0.1"/>
    <path id="Path_118" data-name="Path 118" d="M810.973,491.713c-.792-.531-3.065-.467-4.039-.7-1.426-.341-2.828-.792-4.23-1.228-2.844-.927-5.663-1.98-8.586-2.661-.539-.119-2.376-.151-2.289-.832s1.838-.919,2.273-.951c2.59-.19,5.822,1.022,8.23,1.885A36.27,36.27,0,0,1,810.973,491.713Z" transform="translate(-186.833 -198.927)" opacity="0.1"/>
    <path id="Path_119" data-name="Path 119" d="M805.661,472.717c-2.907-.792-5.544-2.6-8.538-2.946a3.469,3.469,0,0,1-2.178-.665,2.566,2.566,0,0,1-.7-1.267,14.757,14.757,0,0,1,6.154,1.545,19.358,19.358,0,0,1,2.883,1.537C803.943,471.323,804.941,472.487,805.661,472.717Z" transform="translate(-187.334 -195.289)" opacity="0.1"/>
    <path id="Path_120" data-name="Path 120" d="M876.043,384.46a13.853,13.853,0,0,0,9.711,15.311c-.388,1.877-2.329,2.915-3.7,4.253-1.933,1.877-2.931,4.689-5.212,6.115-2.543,1.584-5.814.966-8.713.3a1.062,1.062,0,0,1-.681-.356.974.974,0,0,1-.127-.309c-.958-3.509-1.584-7.255-.6-10.772.792-2.994,2.693-5.544,4.214-8.19S872.6,385.331,876.043,384.46Z" transform="translate(-202.303 -177.953)" fill="#3f3d56"/>
    <path id="Path_121" data-name="Path 121" d="M779.517,327.113a20.594,20.594,0,0,0-8.713,2.653c-1.774,1.014-3.6,2.376-5.624,2.131-1.2-.135-2.376-.792-3.541-.475a6.945,6.945,0,0,0-1.814,1.077,2.052,2.052,0,0,1-2,.317l-.792,10.962c-.3,4.166-.594,8.42.4,12.483.515,2.075,1.648,3.96,1.774,6.067s-.063,4.269.087,6.4c.143,1.972.578,3.913.689,5.885.222,3.723-.7,7.414-1.584,11.033-1.339,5.339-2.147,10.8-4.752,15.627a9.221,9.221,0,0,0-1.584,4.222,2.158,2.158,0,0,0,.048.554c-.792.436-1.529.848-2.2,1.275-1.5.974-3.113,2.059-3.731,3.746-.5,1.37-.269,2.939-.871,4.261s-1.98,2.265-2.281,3.691c-.214,1.038.2,2.131,0,3.168a13.54,13.54,0,0,0-.436,1.64c-.079,1.188.927,2.146,1.925,2.8a15.5,15.5,0,0,0,4.752,2.091L754,409.947h0a151.356,151.356,0,0,0,10.717-24.926,53.6,53.6,0,0,1,3.1-8.206,38.548,38.548,0,0,0,2.376-4.657,35.083,35.083,0,0,0,1.141-6.265,43.848,43.848,0,0,1,1.861-7.232,31.035,31.035,0,0,0,2.02-7.746c.261-3.818-1.125-7.849.349-11.382a15.136,15.136,0,0,1,2.416-3.636c2.044-2.5,3.9-5.125,5.948-7.628C782.867,327.137,781.1,327.018,779.517,327.113Z" transform="translate(-176.595 -166.023)" fill="#3f3d56"/>
    <g id="Group_9" data-name="Group 9" transform="translate(602.463 117.281)" opacity="0.1">
      <path id="Path_122" data-name="Path 122" d="M817.1,271.81l-.99.071-.111.079a5.847,5.847,0,0,0,1.1-.15Z" transform="translate(-794.322 -271.81)"/>
      <path id="Path_123" data-name="Path 123" d="M829.532,291.225a21.344,21.344,0,0,1-1.014,4.626,21.18,21.18,0,0,0-.792,2.788c-.159.919-.174,1.853-.317,2.772a9.03,9.03,0,0,1-3.636,6,1.584,1.584,0,0,1-.982.356c-.618-.071-1-.792-1.228-1.442-1.259-3.636-.958-8.079-3.279-10.978a12,12,0,0,0-3.754-2.8,4.84,4.84,0,0,0-1.917-.721,5.045,5.045,0,0,0-2.772,1.014,17.259,17.259,0,0,1-5.481,2.424,6.733,6.733,0,0,1-5.663-1.22c-1.093-.9-1.893-2.257-3.1-2.962s-2.479-.665-3.675-1.148a5.41,5.41,0,0,1-3.089-3.533,2.259,2.259,0,0,1-.063-.3,5.544,5.544,0,0,0,.064,2.677,5.41,5.41,0,0,0,3.089,3.533c1.2.483,2.543.491,3.675,1.148s2.012,2.059,3.1,2.962a6.732,6.732,0,0,0,5.663,1.22,17.26,17.26,0,0,0,5.481-2.424,5.045,5.045,0,0,1,2.772-1.014,4.839,4.839,0,0,1,1.917.721,12,12,0,0,1,3.7,2.82c2.321,2.9,2.02,7.342,3.279,10.978.23.657.61,1.37,1.228,1.442a1.584,1.584,0,0,0,1.038-.38,9.03,9.03,0,0,0,3.643-6.02c.143-.919.158-1.853.317-2.772a21.183,21.183,0,0,1,.792-2.788,17.828,17.828,0,0,0,1.054-6.661C829.564,291.446,829.548,291.336,829.532,291.225Z" transform="translate(-788.631 -274.781)"/>
    </g>
    <path id="Path_124" data-name="Path 124" d="M748.2,372.81l-.539,7.232c-.079.982-1.956,24.364-15.8,51.69-11.881,23.437-35,53.963-78.652,71.119q-5.109,2.02-10.606,3.77L638.52,493.79A150.042,150.042,0,0,0,668,480.895c22.249-12.847,39.548-31.183,51.611-54.779a147.143,147.143,0,0,0,13.544-39.841H683.493V372.81Z" transform="translate(-154.954 -175.531)" fill="#ef767a"/>
    <path id="Path_125" data-name="Path 125" d="M648.848,502.863c43.643-17.156,66.771-47.674,78.644-71.111,13.845-27.326,15.73-50.692,15.8-51.69l.539-7.232h5.544l-.539,7.232c-.071.982-1.956,24.364-15.8,51.69-11.881,23.437-35,53.955-78.644,71.111q-5.109,2.02-10.614,3.778l-.539-1.687Q646.107,503.932,648.848,502.863Z" transform="translate(-155.936 -175.535)" fill="#fff" opacity="0.1"/>
    <path id="Path_126" data-name="Path 126" d="M511.2,493.79l-4.087,12.831q-5.5-1.758-10.614-3.778c-43.643-17.156-66.771-47.674-78.644-71.111-13.845-27.326-15.73-50.692-15.8-51.69l-.539-7.232H466.2v13.465H416.53a147.229,147.229,0,0,0,13.584,39.841c12.063,23.6,29.354,41.932,51.6,54.771a149.7,149.7,0,0,0,29.489,12.9Z" transform="translate(-105.673 -175.531)" fill="#ef767a"/>
    <path id="Path_127" data-name="Path 127" d="M501.789,502.863c-43.643-17.156-66.771-47.674-78.644-71.111-13.845-27.326-15.73-50.692-15.8-51.69l-.539-7.232H401.26l.539,7.232c.071.982,1.956,24.364,15.8,51.69,11.881,23.437,35,53.955,78.644,71.111q5.109,2.02,10.614,3.778l.539-1.687Q504.537,503.932,501.789,502.863Z" transform="translate(-105.619 -175.535)" fill="#fff" opacity="0.1"/>
    <path id="Path_128" data-name="Path 128" d="M644.358,657.613v72.608H494.92V657.613l4.752-6.336c48.427-17.188,58.24-62.01,60.2-79.745a72.912,72.912,0,0,0,.5-7.382h18.479a72.928,72.928,0,0,0,.5,7.382c1.988,17.734,11.8,62.573,60.2,79.745Z" transform="translate(-125.094 -215.318)" fill="#ef767a"/>
    <rect id="Rectangle_10" data-name="Rectangle 10" width="149.438" height="9.109" transform="translate(369.826 442.296)" opacity="0.1"/>
    <path id="Path_129" data-name="Path 129" d="M507.593,651.277c48.427-17.188,58.24-62.01,60.2-79.745a72.912,72.912,0,0,0,.5-7.382h-7.921a72.9,72.9,0,0,1-.5,7.382c-1.988,17.734-11.8,62.573-60.2,79.745l-4.752,6.336v72.608h7.921V657.613Z" transform="translate(-125.095 -215.318)" fill="#fff" opacity="0.1"/>
    <path id="Path_130" data-name="Path 130" d="M466.26,372.81h13.4v13.465H467.448Q466.727,379.622,466.26,372.81Z" transform="translate(-119.135 -175.531)" opacity="0.1"/>
    <path id="Path_131" data-name="Path 131" d="M532.259,522.163l-4.087,12.831q-5.5-1.758-10.614-3.778A141.9,141.9,0,0,1,502.77,509.26a149.693,149.693,0,0,0,29.488,12.9Z" transform="translate(-126.727 -203.904)" opacity="0.1"/>
    <path id="Path_132" data-name="Path 132" d="M638.51,522.165a150.038,150.038,0,0,0,29.481-12.895A142.456,142.456,0,0,1,653.2,531.234q-5.109,2.02-10.606,3.77Z" transform="translate(-154.952 -203.906)" opacity="0.1"/>
    <path id="Path_133" data-name="Path 133" d="M708.724,372.81q-.467,6.812-1.188,13.465H695.33V372.81Z" transform="translate(-166.767 -175.531)" opacity="0.1"/>
    <path id="Path_134" data-name="Path 134" d="M596.437,571.532a51.2,51.2,0,0,1-19.477,0,72.906,72.906,0,0,0,.5-7.382h18.479a72.941,72.941,0,0,0,.5,7.382Z" transform="translate(-142.154 -215.318)" opacity="0.1"/>
    <path id="Path_135" data-name="Path 135" d="M468.26,344.65c.341,99.847,43.112,180.59,95.84,180.59s95.491-80.743,95.84-180.59Z" transform="translate(-119.551 -169.675)" fill="#ef767a"/>
    <path id="Path_136" data-name="Path 136" d="M485.289,344.65H468.26c.341,99.847,43.112,180.59,95.84,180.59a51.76,51.76,0,0,0,8.515-.721C523.871,516.377,485.614,439.064,485.289,344.65Z" transform="translate(-119.551 -169.675)" fill="#fff" opacity="0.1"/>
    <rect id="Rectangle_11" data-name="Rectangle 11" width="101.645" height="26.138" transform="translate(393.722 470.089)" fill="#3f3d56"/>
    <path id="Path_137" data-name="Path 137" d="M501.842,597.064h96.893V593.5H497.09v26.138h4.752Z" transform="translate(-103.368 -123.411)" fill="#fff" opacity="0.1"/>
    <path id="Path_138" data-name="Path 138" d="M353.816,432.074c-1.83-.61-12.6-9.132-13.418-12.99s5.695-39.793,5.695-39.793a14.634,14.634,0,0,1-1.584-.119v-.578l1.339-47.207s5.489-31.682-4.879-29.837-3.865,29.837-3.865,29.837-1.18,14.21-2.012,18.471c-.792,4.111-4.42,20.855-1.948,26.059a5.674,5.674,0,0,0,.3.539h0s.412,17.861-4.063,20.3c-4.269,2.321-6.043,14-6.194,15.049l-.23-.1h0a12.411,12.411,0,0,1-3.3-3.018c-.1-.119-.166-.246-.254-.372a17.444,17.444,0,0,0-5.37-27.239,11.247,11.247,0,0,0-1.053-4.372c-2.059-4.4-13.465-10.162-21.568-10.3-3.739-.111-6.8.951-7.921,3.873-.57,1.481-.4,3.168-.634,4.7-.475,3.168-2.511,5.647-5.125,7.62a32.128,32.128,0,0,0-3.414-3.287c-2.645-2.028-7.921-8.713-7.921-8.713s-16.467-17.053-17.687-21.726-17.671-32.736-21.33-27.849,12.6,26.186,12.6,26.186,3.089,7.738,5.465,10.352,20.594,29.069,20.594,29.069l.871,1.806c-3.849,2.028-7.366,4.61-8.61,8.634-1.822,5.925,2.162,11.881,4.919,17.425,5.37,10.82,6.138,24.617-.792,34.5-6.21,8.729-16.982,12.879-27.065,16.507a26.637,26.637,0,0,0,17.109,5.679c-2.329,6.748-10.582,8.982-17.615,10.233,3.691,3.548,8.974,4.839,14.043,5.624a42.081,42.081,0,0,0,7.517.594h.618l.618-.048a21.505,21.505,0,0,0,2.558-.325c3.659-.744,7.216-2.741,9.085-5.972,1.584-2.764,2.139-6.535,5.014-7.921a6.408,6.408,0,0,1,2.376-.562h1.545l11.984.119h1.529c3.382-.079,6.994-.665,8.713-3.461a9.6,9.6,0,0,0,1.085-4.4c.253-3.794,0-7.7.1-11.525,1.022,6.962,2.091,17.814-.451,21.821a37.227,37.227,0,0,1-7.43,8.055,14.264,14.264,0,0,0-1.964,2.012c-.388.277-.618.428-.618.428l-.246.737A13.948,13.948,0,0,0,289,491.09a3.113,3.113,0,0,0-.15,1.275c.277.562-1.98,2.883-1.323,3.857-5.639,6.614-6.709,16.633-6.709,16.633l-10.3,15.635c-5.291,13.9-13.212,15.326-13.212,15.326s-18.606-12.483-19.112-13.093-7.62-3.659-7.62-3.659a8.063,8.063,0,0,0-3.659-3.343c-2.44-1.014-2.645-4.752-2.645-4.752-.3-8.831-5.489-9.5-5.489-9.5a16.855,16.855,0,0,0-9.829,1.75l-.745.055c-3.6.293-7.921.618-12.673.935-13.22.871-16.364,9.433-16.364,9.433a2.635,2.635,0,0,0,.507,3.81c2.131,1.98,15.77,0,16.348-.048a8.854,8.854,0,0,1-3.1-.214c2.146-.079,5.1-.158,7.62-.158h.61a32.956,32.956,0,0,0-.23,4.024c0,2.535,7.01,4.158,7.01,4.158l21.346,19.009s13.418,6,21.956,14.621,16.087,1.18,16.087,1.18c9.037-2.234,35.041-33.671,35.065-33.7h0c0,.919.547,31.492,1.584,37.631h0a4.077,4.077,0,0,0,.23.911c1.22,2.638-.412,9.845-1.117,12.887a35.8,35.8,0,0,0-.515,7.715s-9.75,37.227-8.942,40.5-5.283,18.471-5.283,18.471v12.673l1.061-.055a6.845,6.845,0,0,0-.38.634l-.071.135s6.5,1.418,10.875,1.014S311.71,670.2,311.71,670.2s2.543,1.2,10.368,1.711,7.826-3.453,7.826-3.453c-.9-5.394-13.259-7.2-13.639-7.255-1-.626-1.933-1.307-2.7-1.893l-.158-.127a3.4,3.4,0,0,0,.135-.364c1.323-5.386-6-7.723-6-7.723V649.78c4.752-2.44,5.695-19.184,5.695-19.184s7.129-20.7,8.127-24.158,0-8.625,0-8.625l.713-4.467a21.969,21.969,0,0,0,1.529-3.651,9.02,9.02,0,0,1,1.727-4.261c1.117-1.323-1.22-4.467-1.22-4.467l2.036-5.275V569.9l4.752-21.005s4.982-24.467,3.255-32.475,2.036-12.079,2.036-12.079a10,10,0,0,1-1.046.475,30.245,30.245,0,0,0,1.228-3.374l10.693,1.323v.158h3.857s-1.22-15.049-1.22-21.116,4.111-27.841,4.111-27.841S355.646,432.683,353.816,432.074Zm-47.468-17.568c0,.594-.055,1.212-.1,1.845l-.214.325-.4-.333-.483.752-.143.071c-1.046-.539-1.584-3.62-2.337-2.954l-.1.087c-.166-.19-.333-.246-.507-.087l-.158.135v-.7a17.822,17.822,0,0,0,4.436.562C306.356,414.308,306.348,414.411,306.348,414.506Zm35.564,70.082h.23l-.38,1C341.809,485.253,341.856,484.928,341.912,484.587ZM302.871,664.2l-1.457-.364.792-.135.737.483.087.063Zm14.891-2.131c-.483-.253-.974-.547-1.449-.847C316.471,661.312,317.1,661.637,317.762,662.073Z" transform="translate(-59.316 -160.697)" fill="url(#linear-gradient-2)"/>
    <path id="Path_139" data-name="Path 139" d="M359.155,390.03l-9.592,25h2.329l-9.022,7.192,16.285,2.028Z" transform="translate(-71.3 -81.102)" fill="#f86d70"/>
    <path id="Path_140" data-name="Path 140" d="M359.155,390.03l-9.592,25-2.416-.65-4.277,7.841,16.285,2.028Z" transform="translate(-71.3 -81.102)" opacity="0.1"/>
    <path id="Path_141" data-name="Path 141" d="M344.44,398.295h15.041L365,352.87H344.44Z" transform="translate(-71.626 -73.375)" fill="#f86d70"/>
    <path id="Path_142" data-name="Path 142" d="M344.44,398.295h15.041L365,352.87H344.44Z" transform="translate(-71.626 -73.375)" opacity="0.1"/>
    <path id="Path_143" data-name="Path 143" d="M334.948,477.151l3.247-.547,7.461-1.267s22.407-5.053,27.033-5.465a28.887,28.887,0,0,0,8.111-2.313c1.212-.523,1.98-.919,1.98-.919L374.71,451.9l-12.523-9.283s-7.921-1.687-11.271-6.3a7.422,7.422,0,0,1-1.038-7.034c2.044-6.336-12.206,6.059-12.206,6.059s.135,2.97,0,6.756c0,.745-.071,1.521-.127,2.313a15.586,15.586,0,0,1-.127,1.584c-.348,3.762-1.061,7.635-2.471,9.948C331.5,461.6,334.948,477.151,334.948,477.151Z" transform="translate(-91.512 -186.9)" fill="#fbbebe"/>
    <path id="Path_144" data-name="Path 144" d="M338.79,442.5h.317c.57,0,1.03-1.212,1.584-1.267,4.459-.428,8.53-1.362,11.358-4.523a7.429,7.429,0,0,1-1.038-7.026c2.043-6.337-12.206,6.051-12.206,6.051S338.956,438.716,338.79,442.5Z" transform="translate(-92.629 -186.983)" opacity="0.1"/>
    <path id="Path_145" data-name="Path 145" d="M316.89,419.1a17.354,17.354,0,0,0,17.362,17.362,12.11,12.11,0,0,0,1.7-.079A17.362,17.362,0,1,0,316.89,419.1Z" transform="translate(-88.075 -181.548)" fill="#fbbebe"/>
    <path id="Path_146" data-name="Path 146" d="M297.48,389.376c-.57,1.473-.4,3.121-.626,4.681-.848,5.632-6.574,9.006-11.754,11.366s-11.026,5.156-12.673,10.6c-1.806,5.885,2.139,11.786,4.879,17.307,5.339,10.756,6.1,24.475-.792,34.312-6.123,8.713-16.792,12.847-26.835,16.475a26.455,26.455,0,0,0,16.99,5.655c-2.3,6.709-10.5,8.934-17.489,10.17,3.667,3.533,8.919,4.816,13.948,5.592a31.627,31.627,0,0,0,11.089.206,13.322,13.322,0,0,0,9.014-5.94c1.584-2.748,2.123-6.495,4.982-7.881a9.014,9.014,0,0,1,4.063-.594l11.881.127c3.7,0,8.079-.285,9.988-3.445a9.5,9.5,0,0,0,1.077-4.372c.515-7.794-.982-16.031,2.226-23.144.966-2.147-5.236-5.544-4.586-7.818a73.02,73.02,0,0,0,2.772-22.106c0-6.3,4.095-11.723,7.477-17.037s6.21-12.023,3.541-17.726C323.642,389.439,301.036,380.2,297.48,389.376Z" transform="translate(-73.996 -178.172)" fill="#3f3d56"/>
    <path id="Path_147" data-name="Path 147" d="M330.13,755.494l3.026,2,.467.309.087.055,3.588,2.376,8.38,1.41,7.366-.507s2.123-4.436-1.212-4.333a6.938,6.938,0,0,1-3.042-.879l-.459-.23h0c-.483-.253-.966-.539-1.442-.84h0c-.99-.626-1.925-1.307-2.677-1.885-1.109-.855-1.845-1.5-1.845-1.5Z" transform="translate(-90.828 -254.269)" fill="#fbbebe"/>
    <path id="Path_148" data-name="Path 148" d="M334,758.668l.467.309.087.055,3.588,2.376,8.38,1.41,7.366-.507s2.123-4.436-1.212-4.333a6.938,6.938,0,0,1-3.042-.879c.586.459,1.077.958,1.125,1.378.135,1.133-5.449,3.168-5.449,3.168l-7.873-2.083s-1.339-.38-3.168-.855l-.174-.047Z" transform="translate(-91.633 -255.439)" opacity="0.1"/>
    <path id="Path_149" data-name="Path 149" d="M317,760.31s6.455,1.41,10.8,1.006,11.818,3.335,11.818,3.335,2.527,1.188,10.3,1.7,7.77-3.437,7.77-3.437c-.887-5.362-13.164-7.129-13.544-7.208h0a15.1,15.1,0,0,1,1.442.84h0c.871.57,1.814,1.315,1.885,1.917.135,1.125-5.449,3.168-5.449,3.168l-7.873-2.075s-1.339-.388-3.168-.863H330.8a67.534,67.534,0,0,0-8.253-1.7c-3.39-.364-5.125,2.519-5.481,3.168a.943.943,0,0,0-.063.158Z" transform="translate(-88.098 -255.148)" fill="#3f3d56"/>
    <path id="Path_150" data-name="Path 150" d="M188.54,579.313l3.43,2.63s1-.047,2.487-.095h.475c2.131-.079,5.069-.158,7.564-.158a24.015,24.015,0,0,1,4.824.269c1.711.6,4.752-9.79,4.752-9.79l-3.438-.792-1.141-.269-.792-.19-2.8-.657-8.475.966-5.956,3.834Z" transform="translate(-61.387 -216.588)" fill="#fbbebe"/>
    <path id="Path_151" data-name="Path 151" d="M188.54,579.313l3.43,2.63s1-.048,2.487-.1a3,3,0,0,1-1.584-1.418c-2.218-6.154,8.784-8.784,8.784-8.784l5.125-.222,1-.048h.792l-1.141-.269-.792-.19-2.8-.657-8.475.966-5.956,3.834Z" transform="translate(-61.387 -216.588)" opacity="0.1"/>
    <path id="Path_152" data-name="Path 152" d="M179.712,581.266c2.075,1.917,15.667,0,16.237-.047a8.553,8.553,0,0,1-3.081-.214,3.4,3.4,0,0,1-2.376-1.7c-2.218-6.162,8.784-8.784,8.784-8.784l5.125-.222.99-.047,12.459-.539.6-3.43s-4.047.38-10.4.887c-3.572.293-7.921.618-12.618.927-13.124.871-16.245,9.386-16.245,9.386A2.633,2.633,0,0,0,179.712,581.266Z" transform="translate(-59.323 -215.761)" fill="#3f3d56"/>
    <path id="Path_153" data-name="Path 153" d="M372.228,378.057a3.508,3.508,0,0,0,.3.539l3.026,4.436,7.873.792.087-3.121,1.323-46.953s5.449-31.492-4.847-29.679-3.834,29.679-3.834,29.679-1.172,14.13-2,18.376C373.36,356.227,369.772,372.908,372.228,378.057Z" transform="translate(-99.406 -161.222)" fill="#fbbebe"/>
    <path id="Path_154" data-name="Path 154" d="M350.14,543.908l2.242,3.834,5.014,8.578s9.093,3.335,11.422.792c1.275-1.386,2.653-6.226,3.62-10.3.792-3.3,1.323-6.075,1.323-6.075Z" transform="translate(-94.989 -210.45)" fill="#fbbebe"/>
    <path id="Path_155" data-name="Path 155" d="M350.14,543.919l2.242,3.834a2.64,2.64,0,0,0,.38-.4c2.535-3.232,13.695-.689,19.675-.483.792-3.295,1.323-6.075,1.323-6.075Z" transform="translate(-94.989 -210.46)" opacity="0.1"/>
    <path id="Path_156" data-name="Path 156" d="M206.16,580.846a24.011,24.011,0,0,1,4.824.269c1.711.6,4.752-9.79,4.752-9.79l-4.578-1.077,12.459-.539.6-3.43s-4.047.38-10.4.887a13.067,13.067,0,0,0-3.461,2.891l-.19.237C207.514,573.551,206.532,577.749,206.16,580.846Z" transform="translate(-65.05 -215.761)" opacity="0.1"/>
    <path id="Path_157" data-name="Path 157" d="M330.13,755.485l3.493,2.313c5.212-.943,9.972-2.424,10.534-4.752a.791.791,0,0,0,0-.111c-1.109-.855-1.845-1.5-1.845-1.5Z" transform="translate(-90.828 -254.26)" opacity="0.1"/>
    <path id="Path_158" data-name="Path 158" d="M317.09,760.5a120.913,120.913,0,0,0,13.734-1.473,67.545,67.545,0,0,0-8.261-1.719C319.181,756.947,317.446,759.83,317.09,760.5Z" transform="translate(-88.117 -255.477)" opacity="0.1"/>
    <path id="Path_159" data-name="Path 159" d="M206.64,579.533c0,2.527,6.962,4.142,6.962,4.142l21.2,18.875s13.322,5.956,21.8,14.534,15.952,1.212,15.952,1.212c8.982-2.218,34.851-33.512,34.851-33.512s.6,35.738,1.814,38.359-.4,9.79-1.109,12.823a35.644,35.644,0,0,0-.507,7.667s-9.687,37.045-8.879,40.276-5.251,18.376-5.251,18.376V714.9s23.722-.911,25.029-6.257-5.948-7.675-5.948-7.675v-1.315c4.752-2.424,5.647-19.073,5.647-19.073s7.073-20.594,8.079-24.023,0-8.586,0-8.586l.7-4.436A22.144,22.144,0,0,0,328.5,639.9a8.982,8.982,0,0,1,1.719-4.238c1.109-1.315-1.212-4.443-1.212-4.443l2.02-5.251v-5.75l4.752-20.895s4.95-24.332,3.232-32.308,2.02-12.008,2.02-12.008c-8.1,4.245-12.19-5.2-13.528-9.267-.341-1.046-.507-1.743-.507-1.743s-11.128-4.1-21.489-3.121a24.734,24.734,0,0,0-6.17,1.307c-11.509,4.142-13.323,21.3-13.323,21.3l-10.194,15.548c-5.251,13.829-13.124,15.239-13.124,15.239s-18.471-12.411-19.009-13.021-7.572-3.635-7.572-3.635a8,8,0,0,0-3.636-3.327c-2.424-1.014-2.622-4.752-2.622-4.752-.3-8.784-5.449-9.5-5.449-9.5C206.537,558.543,206.64,577.014,206.64,579.533Z" transform="translate(-65.15 -210.448)" fill="#3f3d56"/>
    <rect id="Rectangle_12" data-name="Rectangle 12" width="10.899" height="33.813" transform="translate(255.151 319.732) rotate(180)" fill="#f86d70"/>
    <rect id="Rectangle_13" data-name="Rectangle 13" width="10.899" height="33.813" transform="translate(255.151 319.732) rotate(180)" opacity="0.1"/>
    <path id="Path_160" data-name="Path 160" d="M372.44,397.41a.479.479,0,0,0,0,.071,3.506,3.506,0,0,0,.3.539l3.026,4.436,7.873.792.087-3.121C381.271,399.937,375.679,399.263,372.44,397.41Z" transform="translate(-99.626 -180.646)" opacity="0.1"/>
    <path id="Path_161" data-name="Path 161" d="M370.15,398.18s.4,17.758-4.04,20.182-6.17,15.049-6.17,15.049,13.465,8.855,16.467,12.752,9.893,13.18,8.475,15.4,3.438,12.317,3.438,12.317-8.887,18.17-6.867,25.037,2.218,25.029,2.218,25.029h3.842s-1.212-14.938-1.212-21,4.032-27.659,4.032-27.659,1.822-21.2,0-21.8-12.515-9.085-13.323-12.926,5.655-39.6,5.655-39.6S374.387,400.6,370.15,398.18Z" transform="translate(-97.027 -180.806)" fill="#f86d70"/>
    <path id="Path_162" data-name="Path 162" d="M336.12,472.79a17.283,17.283,0,0,0,2.638,6.923l7.461-1.267s22.408-5.053,27.033-5.465a28.886,28.886,0,0,0,8.111-2.313,35.769,35.769,0,0,0-10.02-16.435l-2.844-2.638a47.642,47.642,0,0,0-14.336-9.164c.333.277,23.841,20.348,18.693,24.285s-19.009-5.647-19.009-5.647l-15.762-13.544-.57-.491-.911,1.418a13.234,13.234,0,0,1,1.354.65,23.192,23.192,0,0,1,11.089,13.782C352.286,473.772,336.12,472.79,336.12,472.79Z" transform="translate(-92.074 -190.008)" opacity="0.1"/>
    <path id="Path_163" data-name="Path 163" d="M330,543.7s14.938,8.277,18.566,3.635c.792-1.022,2.463-1.465,4.546-1.584-.341-1.045-.507-1.743-.507-1.743s-11.128-4.1-21.489-3.121C330.436,542.6,330,543.7,330,543.7Z" transform="translate(-90.801 -210.45)" fill="#444053"/>
    <path id="Path_164" data-name="Path 164" d="M336.875,447.054l16.332,14.051s13.806,9.616,19.01,5.647-18.7-24.293-18.7-24.293h0a48.316,48.316,0,0,1,14.328,9.14l2.844,2.638c7.477,6.931,9.164,6.931,9.418,17.116.063,2.511-.792,6.115-1.449,6.764-2.424,2.376-4.119,19.635-3.747,21.655s-4.515,19.453-2.931,24.3-19.8-2.424-23.421,2.226S330,522.664,330,522.664s8.277-21.2,10.3-22.613,4.443-12.317,0-17.362a18.832,18.832,0,0,1-4.839-9.893s16.158,1,12.919-9.893a22.859,22.859,0,0,0-12.419-14.431Z" transform="translate(-90.801 -190.014)" fill="#e8e8f0"/>
    <path id="Path_165" data-name="Path 165" d="M361.749,493.38s-6.265,11.81-14.368,14.875c-.261.1-.515.182-.792.261C338.13,511.09,362.383,497.039,361.749,493.38Z" transform="translate(-93.878 -200.602)" opacity="0.1"/>
    <path id="Path_166" data-name="Path 166" d="M252.151,354.491s3.026,7.675,5.449,10.3,20.388,28.871,20.388,28.871l1.521,3.168,1.307,2.7,11.509-1.212.792-4.642-.444-.539a54.371,54.371,0,0,0-6.424-6.733c-2.622-2.012-7.873-8.673-7.873-8.673s-16.348-16.966-17.56-21.607-17.568-32.475-21.2-27.659S252.151,354.491,252.151,354.491Z" transform="translate(-71.898 -166.194)" fill="#fbbebe"/>
    <g id="Group_10" data-name="Group 10" transform="translate(193.402 207.347)" opacity="0.1">
      <path id="Path_167" data-name="Path 167" d="M292.425,519.091a9.022,9.022,0,0,0-4.063.586c-2.851,1.386-3.39,5.133-4.974,7.881-1.853,3.216-5.386,5.2-9.022,5.94a20.141,20.141,0,0,1-2.186.3,24.828,24.828,0,0,0,6.938-.3c3.636-.737,7.168-2.725,9.022-5.941,1.584-2.748,2.123-6.495,4.974-7.881a6.336,6.336,0,0,1,2.376-.554Z" transform="translate(-272.18 -413.288)"/>
      <path id="Path_168" data-name="Path 168" d="M329.521,430.565c0-6.3,4.095-11.723,7.469-17.037s6.21-12.023,3.541-17.726c-2.281-4.871-16.031-11.406-23.968-10.115,7.77,1.006,17.346,6.123,19.215,10.115,2.669,5.7-.166,12.412-3.54,17.726s-7.485,10.74-7.469,17.037a73.942,73.942,0,0,1-2.78,22.106c-.642,2.257,5.544,5.671,4.594,7.81-3.216,7.129-1.711,15.35-2.226,23.144A9.624,9.624,0,0,1,323.272,488c-1.584,2.606-4.832,3.279-7.992,3.422h2.764c3.691,0,8.071-.285,9.98-3.445a9.623,9.623,0,0,0,1.085-4.372c.515-7.794-.99-16.023,2.226-23.144.966-2.139-5.236-5.544-4.594-7.81A73.061,73.061,0,0,0,329.521,430.565Z" transform="translate(-281.142 -385.521)"/>
    </g>
    <path id="Path_169" data-name="Path 169" d="M290.12,413.931l1.307,2.7,11.509-1.212.792-4.641-.444-.539C302.056,410.842,292.861,415.27,290.12,413.931Z" transform="translate(-82.509 -183.314)" opacity="0.1"/>
    <path id="Path_170" data-name="Path 170" d="M332.787,444.432s-2.828-4.436-4.444-3.232-2.242-3.636-3.168-2.828-3.628,3.057-4.752-.087c-.879-2.5-10.447-18.336-14.328-24.7-1-1.647-1.624-2.661-1.624-2.661s-10.9,5.449-13.521,3.636v3.834l2.218.206,11.881,22.178s3.739,5.948,3.485,8.024,4.792,11.16,5.6,11.762,9.5,10.7,9.5,10.7,4.443,21.805.6,27.865-10.495,10.495-10.495,10.495-2,5.853-1.711,6.463-2.329,3.232-1.117,4.039,2.828,6.455,2.828,6.455,5.655-9.085,8.713-10.495,6.97-19.992,6.97-19.992,1.117-10.946,1.2-18.012S330.363,444.432,332.787,444.432Z" transform="translate(-82.681 -183.455)" opacity="0.1"/>
    <path id="Path_171" data-name="Path 171" d="M332.017,444.432S329.2,440,327.581,441.2s-2.249-3.636-3.168-2.828-3.62,3.057-4.752-.087c-.887-2.5-10.455-18.336-14.328-24.7l-1.624-2.661s-10.9,5.449-13.528,3.636v3.834l2.226.206,11.881,22.178s3.746,5.948,3.485,8.024,4.752,11.16,5.6,11.762,9.5,10.7,9.5,10.7,4.443,21.805.61,27.865a37.135,37.135,0,0,1-7.311,8.095,14.13,14.13,0,0,0-4.752,7.62,3.011,3.011,0,0,0-.143,1.267c.293.6-2.329,3.232-1.117,4.039s2.843,6.479,2.843,6.479,5.655-9.085,8.713-10.495,6.978-19.992,6.978-19.992,1.109-10.946,1.2-18.011S329.641,444.432,332.017,444.432Z" transform="translate(-82.521 -183.455)" fill="#f86d70"/>
    <path id="Path_172" data-name="Path 172" d="M307.808,569.21s8.483,1.584,11.881,4.032-12.919-3.834-12.919-3.834Z" transform="translate(-85.971 -216.37)" opacity="0.1"/>
    <path id="Path_173" data-name="Path 173" d="M333.83,596.35s8.847,7.374,7.263,14.035-5.671,23.421-5.671,23.421Z" transform="translate(-91.598 -222.013)" opacity="0.1"/>
    <path id="Path_174" data-name="Path 174" d="M233.069,578.45s-12.467,1.362-11.659,2.978,11.659-1.489,11.659-1.489Z" transform="translate(-68.214 -218.291)" opacity="0.1"/>
    <path id="Path_175" data-name="Path 175" d="M355.357,654.791s.792,1.006-3.834,0-1.212-4.111-1.212-4.111Z" transform="translate(-94.773 -233.311)" opacity="0.1"/>
    <path id="Path_176" data-name="Path 176" d="M352.3,673.343s-6.337,1.006-9.734,0S352.3,673.343,352.3,673.343Z" transform="translate(-93.297 -237.93)" opacity="0.1"/>
    <path id="Path_177" data-name="Path 177" d="M334.3,742.193s-1.109-1.212-6.661,1.006-7.77,2.321-9.386,1.584S334.3,742.193,334.3,742.193Z" transform="translate(-88.337 -252.271)" opacity="0.1"/>
    <path id="Path_178" data-name="Path 178" d="M344.253,576.28l-7.873,10.954S340.618,577.642,344.253,576.28Z" transform="translate(-92.128 -217.84)" opacity="0.1"/>
    <path id="Path_179" data-name="Path 179" d="M323.991,449.15s-.341,3.636-5.418,5.053-6.043,2.566-6.043,2.566" transform="translate(-87.169 -191.405)" opacity="0.1"/>
    <path id="Path_180" data-name="Path 180" d="M306.745,415.88s-6.7,4.752-13.695,3.746" transform="translate(-83.118 -184.487)" opacity="0.1"/>
    <path id="Path_181" data-name="Path 181" d="M316.78,543.263s1.956,1.228,6.653-4.143" transform="translate(-88.052 -210.113)" opacity="0.1"/>
    <path id="Path_182" data-name="Path 182" d="M376.81,470.761a3.44,3.44,0,0,0-1.133-2.661l-1.315-1.584a6.1,6.1,0,0,0-.863-.887c-.792-.61-1.806-.792-2.63-1.339" transform="translate(-99.3 -194.553)" opacity="0.1"/>
    <path id="Path_183" data-name="Path 183" d="M899.674,123.827s-66.684-4.024-58.842,42.708c0,0-1.584,8.261,5.925,12.008,0,0,.119-3.461,6.843-2.281a31.287,31.287,0,0,0,7.247.349,15.1,15.1,0,0,0,8.855-3.659h0s18.748-7.746,26.035-38.383c0,0,5.394-6.685,5.18-8.4l-11.255,4.808s3.849,8.119.792,14.867c0,0-.364-14.574-2.527-14.257-.436.071-5.845,2.812-5.845,2.812s6.614,14.138,1.624,24.419c0,0,1.893-17.425-3.691-23.4l-7.921,4.626s7.731,14.606,2.487,26.526c0,0,1.346-18.281-4.158-25.4l-7.176,5.6s7.263,14.4,2.836,24.285c0,0-.578-21.283-4.388-22.891,0,0-6.281,5.544-7.239,7.81,0,0,4.974,10.455,1.885,15.968,0,0-1.893-14.178-3.445-14.257,0,0-6.257,9.394-6.907,15.841,0,0,.269-9.576,5.394-16.728,0,0-6.051,1.038-9.584,4.958,0,0,.974-6.637,11.128-7.216,0,0,5.172-7.129,6.55-7.564,0,0-10.091-.84-16.214,1.869,0,0,5.386-6.265,18.067-3.414l7.089-5.79s-13.291-1.814-18.93.19c0,0,6.487-5.544,20.839-1.5l7.715-4.61s-11.334-2.44-18.083-1.584c0,0,7.129-3.842,20.348.325l5.544-2.479s-8.3-1.632-10.732-1.893-2.558-.927-2.558-.927a28.792,28.792,0,0,1,15.6,1.735S899.88,124.564,899.674,123.827Z" transform="translate(-196.889 -123.74)" fill="#ef767a" opacity="0.1"/>
    <path id="Path_184" data-name="Path 184" d="M804.4,138.85s-30.1-1.822-26.574,19.295a5.164,5.164,0,0,0,2.669,5.434s.055-1.584,3.1-1.038a13.867,13.867,0,0,0,3.271.158,6.788,6.788,0,0,0,4-1.655h0s8.475-3.493,11.77-17.338c0,0,2.432-3.026,2.337-3.8l-5.085,2.17s1.743,3.675.372,6.725c0,0-.166-6.59-1.141-6.432-.2,0-2.646,1.267-2.646,1.267s2.994,6.392.737,11.041c0,0,.855-7.873-1.671-10.574l-3.58,2.091s3.5,6.6,1.125,11.984c0,0,.61-8.261-1.877-11.477l-3.24,2.558s3.279,6.511,1.283,10.97c0,0-.261-9.616-1.988-10.336,0,0-2.836,2.5-3.271,3.533,0,0,2.249,4.752.855,7.208,0,0-.855-6.408-1.584-6.432,0,0-2.82,4.245-3.121,7.129a15.486,15.486,0,0,1,2.44-7.564,8.523,8.523,0,0,0-4.333,2.242s.444-2.994,5.03-3.263c0,0,2.376-3.216,2.962-3.414,0,0-4.562-.38-7.327.848,0,0,2.432-2.836,8.166-1.584l3.168-2.614s-6-.792-8.554.087c0,0,2.931-2.5,9.418-.681l3.485-2.083s-5.117-1.109-8.174-.7c0,0,3.224-1.743,9.2.143l2.495-1.117s-3.754-.745-4.855-.855-1.156-.42-1.156-.42a12.982,12.982,0,0,1,7.049.792S804.493,139.182,804.4,138.85Z" transform="translate(-183.861 -126.874)" fill="#ef767a" opacity="0.1"/>
    <ellipse id="Ellipse_24" data-name="Ellipse 24" cx="31.849" cy="5.386" rx="31.849" ry="5.386" transform="translate(693.826 504.67)" fill="#ef767a"/>
    <path id="Path_185" data-name="Path 185" d="M953.088,752.726a9.22,9.22,0,0,0,3.034-4.586A4.09,4.09,0,0,0,954,743.475c-1.948-.745-4.032.61-5.608,1.972s-3.39,2.923-5.449,2.63a8.317,8.317,0,0,0,2.566-7.77,3.263,3.263,0,0,0-.713-1.584c-1.085-1.156-3.042-.665-4.34.245-4.119,2.9-5.267,8.5-5.291,13.529-.412-1.814-.063-3.707-.071-5.544s-.523-3.96-2.1-4.935a6.266,6.266,0,0,0-3.168-.745c-1.846-.071-3.913.119-5.172,1.473-1.584,1.679-1.164,4.5.2,6.336s3.445,3.018,5.362,4.293a11.88,11.88,0,0,1,3.826,3.651,3.293,3.293,0,0,1,.285.657h11.612a32.293,32.293,0,0,0,7.152-4.958Z" transform="translate(-214.24 -251.477)" fill="#ef767a"/>
  </g>
</svg>
